<?xml version="1.0" standalone="no"?>
<!DOCTYPE svg PUBLIC "-//W3C//DTD SVG 20010904//EN"
 "http://www.w3.org/TR/2001/REC-SVG-20010904/DTD/svg10.dtd">
<svg version="1.0" xmlns="http://www.w3.org/2000/svg"
 width="1200.000000pt" height="1200.000000pt" viewBox="0 0 1200.000000 1200.000000"
 preserveAspectRatio="xMidYMid meet">

<g transform="translate(0.000000,1200.000000) scale(0.100000,-0.100000)"
fill="#000000" stroke="none">
<path d="M6975 11744 c-306 -34 -612 -129 -955 -298 l-145 -72 -445 12 c-245
7 -586 17 -758 22 -481 15 -455 26 -804 -326 -323 -325 -317 -314 -318 -660 0
-161 -3 -214 -12 -216 -7 -2 -76 -18 -153 -36 -864 -200 -1666 -543 -2265
-968 -310 -221 -612 -509 -754 -721 -35 -52 -36 -55 -36 -155 0 -182 30 -518
71 -796 l20 -135 -33 -25 c-48 -37 -77 -70 -102 -115 l-21 -40 0 -1080 c0
-1023 1 -1084 19 -1150 45 -168 133 -313 272 -444 l96 -91 -197 0 c-154 0
-196 -3 -192 -13 7 -16 237 -613 347 -897 l87 -225 290 -3 290 -2 54 -140 54
-140 380 -2 380 -3 85 -220 85 -220 101 -3 101 -3 119 -137 c65 -75 211 -229
324 -342 837 -836 1794 -1374 2908 -1634 84 -20 162 -36 175 -36 12 0 99 18
192 40 1021 242 1927 728 2707 1453 167 155 393 388 523 540 l100 117 101 0
101 0 86 223 85 222 380 3 380 2 51 131 c28 72 51 135 51 140 0 5 122 9 293 9
l292 0 49 128 c27 70 68 177 91 237 24 61 100 257 169 436 l127 327 -3 413
c-3 462 -2 452 -76 527 -71 70 -100 77 -354 80 l-227 4 39 111 c40 115 146
448 175 548 l16 57 112 4 c88 4 122 9 158 27 61 29 107 75 135 136 24 50 24
51 24 456 l0 405 -26 52 c-23 47 -56 83 -110 122 l-21 15 23 156 c36 246 55
457 61 676 l6 203 -36 55 c-102 153 -346 401 -572 580 -580 461 -1403 844
-2288 1066 -89 22 -178 44 -198 49 l-36 10 -6 147 c-18 403 -165 728 -458
1008 -206 196 -435 317 -714 375 -98 20 -373 34 -470 24z m285 -259 c233 -19
495 -135 682 -301 103 -91 123 -125 36 -59 -145 110 -359 198 -547 225 -131
20 -410 8 -552 -24 -288 -62 -571 -180 -882 -366 -141 -83 -399 -260 -404
-277 -2 -5 7 -14 19 -20 60 -28 284 -209 402 -325 72 -72 118 -122 101 -112
-16 10 -66 40 -110 68 -182 114 -449 217 -686 265 l-140 28 88 73 c507 424
1054 712 1516 801 180 34 287 40 477 24z m-2580 -302 c0 -11 -893 -903 -903
-903 -5 0 -7 80 -5 178 2 150 6 183 22 217 30 61 428 459 490 490 47 24 59 25
223 25 95 0 173 -3 173 -7z m695 -19 c152 -6 159 -7 135 -23 -14 -9 -95 -68
-180 -132 -179 -135 -352 -281 -531 -449 l-126 -119 -104 105 -104 104 265
265 264 264 110 -5 c61 -2 183 -7 271 -10z m-958 -776 l102 -103 -115 -125
c-259 -280 -478 -563 -601 -777 l-22 -38 -1 310 0 310 262 262 c145 145 265
263 268 263 3 0 51 -46 107 -102z m683 -110 c0 -2 -87 -91 -193 -199 -428
-435 -704 -791 -825 -1063 -12 -27 -12 -28 10 -22 88 28 166 15 224 -37 61
-53 79 -99 79 -202 0 -83 -3 -96 -37 -168 -44 -91 -119 -171 -194 -206 -58
-28 -141 -38 -185 -22 -18 6 -33 10 -35 9 -1 -2 4 -43 11 -93 34 -225 159
-478 348 -705 37 -44 67 -83 67 -87 0 -3 -35 31 -77 77 -510 547 -608 1050
-318 1625 141 279 436 658 746 961 88 85 98 92 154 104 78 17 225 35 225 28z
m-2317 -1359 c33 -36 35 -76 6 -113 -30 -38 -64 -49 -105 -36 -42 14 -64 44
-64 88 0 45 16 71 53 88 42 18 76 10 110 -27z m5232 -525 l7 -247 -264 -264
-263 -263 -99 99 -99 99 141 149 c183 193 339 376 460 540 53 72 100 132 103
132 3 1 10 -110 14 -245z m654 -351 c41 -116 40 -115 135 -148 47 -16 86 -32
86 -35 0 -3 -39 -19 -86 -35 -95 -33 -94 -33 -135 -147 -13 -38 -26 -68 -29
-68 -3 0 -16 33 -29 73 -34 105 -38 110 -135 143 -47 16 -86 31 -86 34 0 3 39
19 86 35 52 18 92 38 99 50 7 11 23 53 36 92 13 40 26 73 29 73 3 0 16 -30 29
-67z m1352 -212 c21 -22 29 -39 29 -66 0 -27 -8 -44 -29 -66 -22 -21 -39 -29
-66 -29 -27 0 -44 8 -66 29 -21 22 -29 39 -29 66 0 27 8 44 29 66 22 21 39 29
66 29 27 0 44 -8 66 -29z m-1984 -282 c-5 -100 -25 -134 -169 -277 l-114 -112
-54 40 c-30 23 -84 57 -120 77 -36 20 -67 38 -70 40 -2 2 113 121 255 264
l260 259 8 -107 c4 -60 6 -142 4 -184z m-735 -122 c-30 -31 -42 -37 -62 -31
-14 4 -105 10 -203 13 l-178 6 138 126 138 127 102 -101 103 -101 -38 -39z
m-5958 -293 c3 -9 6 -367 6 -797 0 -491 4 -798 11 -826 28 -125 123 -235 245
-287 l69 -29 772 -3 773 -3 2 978 3 978 399 3 c286 1 403 -1 412 -9 12 -10 14
-217 13 -1273 -1 -693 -4 -1294 -8 -1334 l-6 -74 -1420 0 c-1411 0 -1421 1
-1500 21 -254 67 -469 249 -551 467 -20 52 -28 99 -35 194 -14 204 -11 1984 3
1998 9 9 114 12 409 12 353 0 398 -2 403 -16z m5794 6 c239 -25 436 -136 588
-332 51 -65 86 -138 109 -226 18 -70 21 -302 4 -401 -18 -112 -78 -228 -165
-322 l-46 -48 54 -61 c70 -79 124 -170 148 -248 17 -54 20 -93 20 -246 0 -218
-12 -283 -76 -415 -39 -81 -60 -109 -134 -182 -70 -70 -104 -95 -172 -128
-163 -79 -60 -74 -1663 -78 -786 -2 -1440 -1 -1452 2 l-23 5 0 1339 c0 736 3
1341 7 1344 11 12 2690 8 2801 -3z m4417 -360 l0 -365 -1190 -5 c-1147 -5
-1192 -6 -1235 -24 -126 -54 -199 -134 -249 -272 -22 -58 -22 -72 -19 -335 3
-259 5 -277 27 -332 33 -83 114 -163 215 -213 l80 -39 1188 -3 1188 -2 0 -365
0 -365 -23 -5 c-12 -3 -648 -4 -1412 -2 -1526 4 -1446 1 -1600 63 -172 70
-349 225 -418 366 -67 139 -67 136 -67 936 0 790 0 788 62 905 58 108 222 264
343 325 75 37 219 83 290 91 38 5 689 8 1445 7 l1375 -1 0 -365z m-9299 18
c14 -46 31 -88 35 -94 5 -6 47 -24 94 -40 47 -16 85 -32 85 -35 0 -3 -40 -21
-89 -38 l-89 -32 -32 -89 c-18 -49 -36 -88 -40 -85 -3 2 -20 42 -36 89 l-28
85 -96 35 c-56 20 -89 37 -80 40 8 3 51 19 95 35 l79 29 29 78 c15 44 30 85
32 92 8 22 13 13 41 -70z m8130 -965 c20 -55 21 -57 78 -76 31 -10 55 -21 53
-23 -2 -2 -28 -12 -57 -22 -52 -18 -55 -21 -74 -75 -12 -31 -23 -57 -26 -57
-3 0 -14 26 -25 57 -19 55 -22 57 -74 75 -30 10 -56 20 -58 22 -2 2 22 13 54
23 57 19 58 20 78 76 11 31 22 57 25 57 3 0 14 -26 26 -57z m-6197 -1930 c52
-16 131 -75 131 -97 0 -6 -24 -35 -53 -64 l-53 -53 -25 19 c-69 54 -135 66
-169 32 -11 -11 -20 -23 -20 -27 1 -26 40 -49 140 -82 176 -58 248 -171 189
-301 -27 -59 -53 -86 -114 -118 -67 -34 -173 -41 -247 -17 -63 20 -150 76
-172 110 -16 24 -15 26 26 71 62 67 71 70 111 34 69 -60 159 -78 197 -40 43
43 12 85 -83 116 -191 62 -276 183 -218 309 24 51 66 91 116 109 55 20 181 20
244 -1z m1929 3 c104 -28 193 -102 243 -204 20 -40 24 -62 24 -152 0 -87 -4
-113 -22 -153 -31 -66 -115 -152 -182 -184 -50 -25 -67 -28 -161 -28 -101 0
-108 1 -168 34 -199 108 -261 353 -135 539 87 129 249 188 401 148z m2932 -5
c49 -19 107 -60 123 -87 6 -10 -9 -31 -47 -70 -54 -55 -57 -56 -78 -40 -13 9
-33 23 -44 32 -54 38 -144 22 -144 -26 0 -25 30 -44 116 -74 164 -55 224 -113
224 -214 0 -69 -20 -115 -71 -164 -115 -112 -318 -102 -453 22 -24 23 -43 47
-40 54 3 7 30 34 60 60 l55 48 35 -31 c65 -58 147 -77 192 -45 29 20 28 58 -3
82 -14 11 -53 30 -88 42 -93 33 -167 86 -195 140 -19 36 -23 57 -20 107 5 87
45 136 134 168 58 21 184 19 244 -4z m-5645 -76 l0 -80 -160 -3 c-88 -1 -164
-7 -169 -12 -4 -4 -5 -29 -2 -54 l7 -46 113 0 c141 0 148 -4 144 -85 l-3 -60
-125 -3 c-68 -1 -129 -7 -133 -11 -5 -5 -6 -32 -2 -60 l7 -51 166 -2 167 -3 0
-80 0 -80 -265 0 -265 0 -3 335 c-1 184 0 345 3 358 l5 22 258 -2 257 -3 0
-80z m1730 74 c61 -17 129 -91 150 -162 10 -36 14 -72 10 -95 -10 -59 -56
-133 -103 -167 -41 -28 -50 -30 -153 -33 l-109 -4 0 -124 0 -124 -95 0 -95 0
0 353 c0 195 3 357 7 360 11 12 345 8 388 -4z m2121 -24 c74 -47 108 -101 112
-185 5 -82 -18 -140 -75 -191 l-36 -31 19 -37 c10 -20 40 -75 67 -124 26 -48
47 -95 47 -103 0 -12 -17 -14 -101 -12 l-102 3 -61 113 -61 112 -37 0 -38 0 0
-115 0 -115 -95 0 -95 0 0 353 c0 195 3 357 7 361 4 4 96 6 204 4 l196 -3 49
-30z m1032 23 c12 -12 17 -114 6 -142 -5 -13 -23 -16 -95 -16 l-89 0 -2 -272
-3 -273 -92 -3 c-92 -3 -92 -3 -99 23 -3 14 -5 138 -3 275 l4 250 -85 0 c-54
0 -91 5 -98 12 -7 7 -12 39 -12 73 0 34 5 66 12 73 17 17 539 17 556 0z m-310
-1604 c38 -27 55 -70 42 -110 -15 -44 -44 -64 -95 -64 -56 0 -90 35 -90 92 0
73 85 123 143 82z m-1898 -284 c17 -79 32 -145 33 -146 1 -1 71 -17 155 -35
84 -18 147 -36 140 -39 -7 -4 -75 -20 -152 -35 -115 -24 -140 -32 -147 -49 -4
-12 -20 -81 -35 -153 -25 -121 -44 -168 -44 -110 -1 23 -56 277 -62 281 -1 1
-64 15 -138 31 -74 15 -143 31 -153 35 -12 4 42 19 134 38 85 18 156 36 160
40 3 4 18 68 33 142 29 144 36 171 42 155 2 -5 17 -75 34 -155z"/>
<path d="M5150 6275 l0 -136 863 3 c819 3 864 4 897 22 72 38 119 101 101 134
-15 28 -63 68 -108 91 -42 21 -47 21 -898 21 l-855 0 0 -135z"/>
<path d="M5150 5325 l0 -135 848 0 c560 0 860 4 885 11 71 19 143 102 127 145
-12 31 -85 89 -129 102 -28 9 -271 12 -885 12 l-846 0 0 -135z"/>
<path d="M5965 3725 c-51 -18 -100 -71 -116 -124 -28 -93 30 -205 120 -232
119 -36 231 52 231 181 0 129 -119 218 -235 175z"/>
<path d="M4930 3670 l0 -80 50 0 c55 0 104 20 114 45 13 34 6 72 -17 93 -19
18 -35 22 -85 22 l-62 0 0 -80z"/>
<path d="M6990 3671 l0 -91 55 0 c31 0 69 7 84 15 36 18 55 62 43 96 -17 43
-45 59 -116 66 l-66 6 0 -92z"/>
</g>
</svg>
